<mxfile host="diagram-viewer.giteeusercontent.com" modified="2022-11-18T09:12:42.239Z" agent="5.0 (Macintosh)" version="${version}" etag="RaPhgcKxKHZ3Re9_Z9I9">
  <diagram id="0" name="第 1 页">
    <mxGraphModel dx="891" dy="567" grid="1" gridSize="10" guides="1" tooltips="1" connect="1" arrows="1" fold="1" page="1" pageScale="1" pageWidth="827" pageHeight="1169" math="0" shadow="0">
      <root>
        <mxCell id="0" />
        <mxCell id="1" parent="0" />
        <mxCell id="GYLNX5us9x9ISjmpDfdw-2" value="" style="ellipse;whiteSpace=wrap;html=1;" vertex="1" parent="1">
          <mxGeometry x="130" y="130" width="120" height="80" as="geometry" />
        </mxCell>
        <mxCell id="GYLNX5us9x9ISjmpDfdw-3" value="" style="rounded=1;whiteSpace=wrap;html=1;" vertex="1" parent="1">
          <mxGeometry x="50" y="290" width="120" height="60" as="geometry" />
        </mxCell>
      </root>
    </mxGraphModel>
  </diagram>
</mxfile>
